<?xml version="1.0" standalone="no"?>
<!DOCTYPE svg PUBLIC "-//W3C//DTD SVG 20010904//EN"
 "http://www.w3.org/TR/2001/REC-SVG-20010904/DTD/svg10.dtd">
<svg version="1.0" xmlns="http://www.w3.org/2000/svg"
 width="333.000000pt" height="333.000000pt" viewBox="0 0 333.000000 333.000000"
 preserveAspectRatio="xMidYMid meet">
<metadata>
Created by potrace 1.11, written by Peter Selinger 2001-2013
</metadata>
<g transform="translate(0.000000,333.000000) scale(0.100000,-0.100000)"
fill="#000000" stroke="none">
<path d="M1185 3310 c-12 -38 -8 -99 9 -115 20 -20 20 -29 0 -49 -15 -16 -11
-56 6 -56 5 0 11 -10 13 -22 3 -13 5 0 4 27 -2 36 2 49 11 47 7 -1 17 9 24 23
8 17 18 24 34 23 13 -1 24 -6 24 -11 0 -5 7 -4 15 3 12 10 15 10 15 -1 0 -11
2 -11 9 0 8 12 11 9 16 -12 4 -16 12 -24 19 -20 6 3 6 1 -1 -8 -17 -18 -16
-29 2 -29 8 0 15 -9 15 -20 0 -11 -7 -20 -15 -20 -8 0 -15 8 -15 18 -1 16 -1
16 -11 -1 -8 -14 -8 -22 0 -30 14 -14 14 -67 0 -67 -8 0 -10 -13 -6 -37 5 -26
3 -33 -3 -23 -5 8 -10 11 -11 5 -1 -21 -18 32 -18 61 -1 31 -27 50 -47 35 -18
-12 -62 -77 -66 -96 -4 -16 -7 -12 -14 14 -11 37 -36 57 -27 21 4 -16 0 -23
-16 -27 -27 -7 -38 -47 -21 -78 7 -13 10 -31 7 -40 -6 -13 -12 -10 -37 17 -16
18 -30 27 -30 20 0 -9 -7 -11 -20 -7 -15 5 -18 3 -14 -9 3 -9 10 -16 15 -16 5
0 9 -9 9 -19 0 -11 6 -21 13 -24 6 -2 9 -8 5 -12 -12 -13 -37 3 -58 37 -22 37
-25 35 -10 -9 13 -36 81 -78 99 -60 13 13 26 3 16 -12 -3 -6 -18 -11 -32 -11
-20 0 -24 -4 -20 -20 6 -25 -27 -28 -41 -4 -7 12 -14 14 -27 7 -12 -7 -14 -13
-6 -17 16 -10 14 -26 -4 -26 -8 0 -18 14 -23 33 -6 23 -18 37 -43 48 -19 10
-37 15 -41 12 -15 -8 -8 -56 10 -69 15 -12 14 -13 -15 -14 -30 0 -33 3 -33 30
0 39 -15 38 -30 -2 -6 -18 -20 -52 -31 -76 -10 -23 -19 -54 -19 -68 0 -13 -12
-53 -27 -87 -47 -109 -42 -318 9 -382 12 -15 17 -33 13 -44 -3 -11 -1 -22 5
-26 21 -13 37 22 44 93 4 40 16 98 27 129 24 71 25 97 3 89 -13 -5 -14 -3 -7
6 6 7 13 27 17 43 4 17 9 39 12 50 4 15 -1 13 -19 -10 -14 -16 -28 -27 -32
-23 -8 7 44 108 55 108 4 0 10 9 13 20 3 11 1 18 -3 15 -17 -11 -21 16 -5 37
l15 23 7 -23 c3 -15 11 -21 20 -18 8 3 19 6 23 6 15 0 61 51 55 61 -3 5 1 6
10 3 11 -5 18 0 21 13 4 15 12 18 34 15 16 -2 58 6 95 18 69 23 59 23 310 4
87 -6 155 12 155 41 0 21 10 19 37 -7 l23 -22 30 29 29 28 43 -35 c24 -19 51
-37 61 -41 9 -3 17 -10 17 -15 0 -5 21 -19 48 -30 26 -12 72 -44 102 -72 30
-27 58 -50 61 -50 11 0 29 -51 29 -81 0 -16 -8 -41 -17 -56 -19 -29 -26 -102
-12 -120 7 -7 6 -14 -1 -18 -14 -9 -13 -71 2 -95 7 -10 10 -21 8 -24 -5 -4
-51 4 -130 24 -60 15 -198 9 -209 -9 -7 -11 -16 -11 -38 -4 -34 12 -101 -6
-115 -31 -5 -8 -15 -22 -23 -30 -17 -16 -20 -100 -6 -138 13 -35 87 -53 135
-33 44 19 175 10 183 -12 3 -7 15 -13 27 -13 21 -1 21 -1 1 -16 -16 -13 -36
-15 -100 -10 l-80 6 60 -30 c49 -24 73 -29 131 -30 39 0 85 5 103 11 19 7 54
8 86 4 54 -6 55 -7 55 -40 0 -45 -47 -144 -83 -174 -56 -47 -139 -91 -172 -91
-57 0 -170 80 -211 149 -9 16 -28 34 -42 41 -35 16 -36 8 -1 -15 22 -16 29
-28 29 -54 0 -56 -51 -76 -126 -49 -28 10 -37 8 -68 -10 -21 -12 -45 -22 -54
-22 -12 0 -13 -3 -4 -12 7 -7 12 -18 12 -24 0 -16 -49 8 -75 36 -11 12 -31 20
-52 20 -31 0 -33 -2 -27 -27 7 -31 32 -63 48 -63 5 0 21 -10 35 -23 15 -13 45
-29 69 -36 46 -13 49 -18 28 -46 -11 -16 -18 -17 -37 -9 -14 6 -77 10 -144 9
-140 -2 -171 5 -155 35 11 21 4 25 -19 11 -7 -5 -14 -26 -15 -47 -1 -37 -1
-38 40 -39 22 0 56 -11 75 -23 42 -25 132 -43 112 -21 -26 27 -6 76 20 50 6
-6 32 -11 58 -11 26 0 51 -5 54 -10 4 -6 15 -8 26 -5 10 4 28 -1 40 -9 21 -14
20 -15 -19 -11 -22 2 -54 0 -69 -4 l-28 -8 28 -12 c16 -6 70 -11 122 -11 52 0
96 -3 99 -8 6 -11 -32 -45 -74 -66 -19 -10 -77 -22 -128 -27 -51 -5 -98 -11
-103 -15 -6 -3 7 -17 28 -30 34 -21 50 -23 151 -24 68 0 112 4 112 10 0 6 7
10 14 10 8 0 28 17 43 37 44 59 64 77 115 101 64 32 73 45 62 90 -6 26 -17 41
-39 51 -16 8 -35 21 -41 29 -6 9 -16 12 -24 7 -9 -6 -10 -2 -5 15 4 14 3 20
-3 16 -16 -10 -39 27 -46 77 -4 26 -5 47 -1 47 12 0 60 -35 75 -54 23 -31 28
-50 18 -63 -7 -8 -3 -16 11 -25 12 -7 21 -19 21 -27 0 -10 8 -12 29 -8 21 5
34 0 50 -17 30 -32 30 -122 -1 -162 -32 -41 -40 -49 -67 -63 -17 -10 -22 -19
-18 -37 2 -14 0 -27 -4 -30 -5 -3 -9 -16 -9 -28 0 -31 -40 -73 -93 -95 -24
-10 -50 -25 -58 -33 -23 -22 -91 -39 -106 -26 -10 8 -13 6 -13 -6 0 -17 -15
-22 -24 -7 -3 4 -17 6 -31 3 -18 -3 -30 1 -40 14 -13 18 -14 18 -15 1 0 -23
-45 -40 -69 -27 -10 5 -21 7 -24 3 -6 -5 -47 7 -94 29 -11 6 -26 7 -32 3 -7
-4 -30 10 -52 30 -34 30 -43 34 -55 24 -13 -10 -17 -10 -25 2 -5 8 -9 17 -9
22 0 4 -9 7 -20 7 -13 0 -20 7 -20 20 0 13 -5 18 -15 14 -8 -4 -15 -2 -15 4 0
6 6 12 13 15 6 2 8 8 4 13 -4 5 -12 2 -17 -6 -5 -8 -12 -11 -16 -7 -4 3 -1 13
5 21 10 12 8 19 -8 35 -12 12 -21 27 -21 33 0 7 -5 20 -10 28 -8 11 -9 7 -5
-15 5 -30 5 -30 -6 -5 -7 14 -12 28 -11 32 1 3 -14 23 -33 44 -28 31 -35 34
-35 18 0 -17 -9 -19 -108 -22 -163 -4 -265 -23 -255 -48 6 -18 -34 -37 -63
-30 -28 7 -30 -1 -6 -31 16 -20 27 -21 187 -25 94 -2 176 -7 183 -12 8 -5 12
-43 12 -125 l0 -117 34 -17 c29 -14 36 -14 46 -2 6 8 9 19 5 25 -3 5 -7 70 -8
142 l-2 133 -50 11 c-27 7 -105 13 -172 13 -104 1 -122 3 -117 16 4 9 0 15 -7
15 -10 1 -10 3 2 10 8 5 87 10 173 11 177 1 168 4 211 -76 15 -27 35 -59 45
-70 10 -11 29 -43 43 -71 14 -28 37 -65 51 -82 15 -16 26 -35 26 -40 0 -6 21
-34 47 -62 26 -28 52 -59 60 -69 7 -11 48 -48 90 -83 105 -87 160 -142 168
-167 8 -26 -2 -61 -18 -61 -7 0 -19 -5 -27 -10 -12 -8 -11 -13 9 -34 12 -13
42 -37 66 -52 44 -27 45 -41 5 -56 -9 -4 -3 -9 18 -13 22 -5 29 -11 21 -15 -7
-5 -17 -7 -23 -5 -6 2 -34 6 -62 9 -49 6 -156 41 -214 71 -15 8 -49 30 -75 50
-26 20 -49 35 -50 33 -2 -2 15 -23 37 -47 33 -34 38 -45 27 -53 -10 -7 -8 -8
9 -3 16 5 22 3 20 -7 -2 -8 4 -12 15 -10 9 2 20 -4 23 -13 3 -8 15 -15 25 -15
10 0 19 -4 19 -8 0 -15 77 -52 94 -46 12 5 15 2 10 -10 -3 -9 -2 -16 4 -16 6
0 18 -3 26 -6 11 -4 15 -2 13 7 -2 8 -2 11 0 7 3 -5 12 -8 22 -8 9 0 22 -5 27
-10 6 -6 32 -12 57 -14 43 -3 80 -16 47 -16 -9 0 -7 -5 6 -16 17 -14 11 -15
-76 -9 -52 3 -108 8 -125 11 -21 4 -26 2 -15 -4 21 -13 137 -33 253 -42 78 -6
101 -12 112 -26 13 -18 40 -19 537 -21 518 -3 599 3 404 27 -47 6 -110 15
-137 20 -28 6 -55 8 -59 5 -5 -3 -10 0 -12 5 -2 6 -61 15 -133 21 -251 19
-256 20 -253 36 2 8 21 25 43 37 23 13 41 31 43 43 2 11 15 26 30 34 15 8 32
19 38 24 6 6 27 24 46 41 41 37 76 58 100 60 39 3 100 15 116 23 9 4 43 20 75
35 45 20 57 31 57 48 0 13 9 29 19 35 24 15 24 56 0 50 -12 -3 -15 1 -12 14 6
21 19 23 82 8 59 -13 63 -5 6 15 -32 10 -60 31 -87 61 -28 32 -68 60 -129 91
-49 24 -96 44 -104 44 -18 0 -183 79 -240 115 -22 14 -52 30 -67 36 -30 12
-34 28 -21 89 l6 33 291 -7 c160 -3 438 -9 619 -12 l327 -7 0 37 0 36 -89 0
c-48 0 -109 3 -135 6 l-46 7 0 52 c0 79 12 85 153 85 108 0 117 1 117 19 0 16
-8 19 -57 19 -32 1 -91 4 -131 7 -121 11 -120 11 -117 -95 2 -82 1 -90 -16
-90 -15 0 -19 8 -19 40 0 59 -32 73 -195 82 -210 11 -257 11 -305 -1 -25 -6
-102 -11 -172 -11 -145 0 -142 -2 -111 80 21 58 31 70 57 70 30 1 47 17 85 80
59 96 87 153 106 217 l18 62 17 -32 c10 -18 21 -47 24 -64 4 -18 12 -35 17
-38 5 -4 9 -28 9 -56 0 -53 14 -67 23 -21 3 15 7 37 11 50 8 35 59 111 77 117
9 3 24 14 34 25 15 16 31 20 86 20 37 0 70 4 74 9 6 11 -28 76 -41 77 -63 6
-95 116 -38 130 24 6 34 24 13 24 -6 0 -29 13 -52 29 -60 41 -165 71 -249 71
l-69 0 6 103 c4 56 11 124 16 152 15 77 -7 236 -43 310 -16 33 -40 70 -54 82
-13 12 -24 29 -24 38 0 9 -6 31 -14 49 -8 20 -10 39 -5 47 17 28 -65 134 -113
144 -35 8 -99 61 -93 78 3 7 1 17 -3 22 -9 13 -67 41 -117 55 -22 7 -53 22
-70 35 -16 12 -57 28 -91 35 -34 7 -71 21 -83 31 l-22 18 21 21 c11 11 20 25
20 30 0 6 -98 10 -274 10 -265 0 -275 -1 -281 -20z m265 -65 c-19 -23 -4 -31
17 -9 17 17 18 17 21 -10 2 -15 -1 -33 -7 -39 -7 -9 -7 -17 0 -27 8 -12 12
-12 16 -2 3 9 10 4 19 -14 15 -27 12 -60 -4 -50 -4 2 -14 -16 -21 -40 -15 -50
-28 -48 -33 6 -2 21 -8 34 -16 32 -8 -1 -11 9 -10 30 2 20 -2 33 -9 34 -7 1
-16 3 -20 4 -5 1 -11 2 -15 1 -5 0 -8 4 -8 9 0 6 5 10 10 10 6 0 10 6 10 14 0
7 6 24 13 37 24 47 29 51 40 40 7 -7 6 -15 -3 -26z m-88 -12 c-3 -16 -7 -22
-10 -15 -4 13 4 42 11 42 2 0 2 -12 -1 -27z m269 -94 c-13 -11 -21 -29 -21
-48 0 -17 -4 -31 -9 -31 -6 0 -7 25 -4 58 4 41 11 62 27 76 21 18 21 18 24
-10 3 -20 -3 -34 -17 -45z m-67 38 c12 -19 3 -32 -19 -24 -17 7 -21 51 -3 45
6 -2 16 -12 22 -21z m125 -19 c0 -7 -4 -22 -9 -33 -7 -17 -9 -15 -9 13 -1 17
4 32 9 32 6 0 10 -6 9 -12z m-119 -59 c0 -24 -4 -38 -10 -34 -5 3 -10 22 -10
41 0 19 5 34 10 34 6 0 10 -18 10 -41z m306 -34 c12 -4 9 -11 -16 -31 -20 -18
-29 -32 -25 -44 4 -12 -1 -19 -15 -23 -22 -6 -37 -33 -25 -45 4 -4 10 -1 12 6
3 6 8 12 13 12 14 0 21 -32 9 -46 -10 -12 -14 -11 -26 6 -8 12 -21 19 -29 16
-11 -4 -12 -1 -6 12 5 9 12 32 16 51 3 19 14 43 23 53 9 10 13 18 8 18 -4 0
-2 6 5 14 6 8 18 13 26 10 8 -2 21 -6 30 -9z m-246 -42 c0 -10 -5 -25 -10 -33
-7 -11 -10 -7 -10 18 0 17 5 32 10 32 6 0 10 -8 10 -17z m-243 -35 c-3 -8 -6
-5 -6 6 -1 11 2 17 5 13 3 -3 4 -12 1 -19z m553 -107 c0 -12 -46 -41 -54 -34
-12 12 -6 24 17 33 29 12 37 12 37 1z m67 -107 c-3 -3 -12 -4 -19 -1 -8 3 -5
6 6 6 11 1 17 -2 13 -5z m418 -744 c3 -5 25 -18 48 -28 46 -21 61 -36 69 -69
6 -24 -24 -80 -47 -89 -8 -4 -15 -12 -15 -20 0 -29 -18 -12 -35 32 -13 35 -25
49 -51 60 -19 8 -34 17 -34 20 0 13 45 104 52 104 4 0 10 -4 13 -10z m-505
-20 c0 -5 -4 -10 -9 -10 -5 0 -23 -3 -40 -6 -19 -4 -31 -2 -31 4 0 10 23 18
63 21 9 0 17 -3 17 -9z m-626 -689 c8 -12 -3 -41 -15 -41 -5 0 -9 11 -9 25 0
25 14 34 24 16z m306 -31 c0 -5 -7 -10 -15 -10 -8 0 -15 5 -15 10 0 6 7 10 15
10 8 0 15 -4 15 -10z m1667 -26 c-3 -3 -12 -4 -19 -1 -8 3 -5 6 6 6 11 1 17
-2 13 -5z m-722 -83 c66 -6 172 -11 236 -11 122 0 149 -9 135 -46 -5 -14 -47
-15 -387 -13 -414 2 -410 2 -371 57 l20 28 124 -2 c68 -1 177 -7 243 -13z
m-425 -413 c0 -4 45 -29 100 -55 55 -26 100 -53 100 -60 0 -6 6 -13 13 -16 6
-2 9 -8 4 -12 -4 -5 -13 -2 -20 7 -6 8 -26 21 -44 27 -17 7 -34 19 -37 27 -3
8 -12 14 -21 14 -8 0 -33 11 -55 25 -22 14 -49 25 -60 25 -15 0 -20 7 -20 25
0 23 2 24 20 13 11 -7 20 -16 20 -20z"/>
<path d="M1792 3325 c7 -7 97 -9 105 -2 3 4 -20 7 -52 7 -32 0 -56 -2 -53 -5z"/>
<path d="M1330 3116 c0 -9 -4 -16 -10 -16 -5 0 -10 -10 -9 -22 0 -13 3 -17 6
-10 2 6 11 12 19 12 16 0 19 36 4 45 -5 3 -10 -1 -10 -9z"/>
<path d="M1050 3081 c0 -6 5 -13 10 -16 15 -9 2 -25 -20 -25 -11 0 -24 -9 -30
-20 -6 -11 -21 -20 -33 -20 -34 -1 -74 -40 -81 -81 -4 -24 -15 -40 -31 -49
-18 -9 -25 -22 -25 -42 0 -15 5 -28 10 -28 6 0 10 6 10 14 0 21 21 31 31 15 6
-9 9 0 9 28 0 32 3 41 14 37 8 -3 16 4 20 20 6 25 42 53 53 42 7 -7 74 41 86
61 11 18 27 16 27 -2 0 -12 4 -13 19 -6 22 12 33 55 18 70 -14 14 -87 14 -87
2z"/>
<path d="M2551 2871 c-25 -16 -5 -34 60 -54 154 -45 205 -57 227 -52 19 5 21
9 12 25 -6 11 -19 20 -28 20 -10 0 -22 4 -28 10 -8 8 -200 60 -221 60 -4 0
-14 -4 -22 -9z"/>
<path d="M905 2790 c4 -6 11 -8 16 -5 14 9 11 15 -7 15 -8 0 -12 -5 -9 -10z"/>
<path d="M951 2784 c0 -11 3 -14 6 -6 3 7 2 16 -1 19 -3 4 -6 -2 -5 -13z"/>
<path d="M3263 2478 c-13 -6 -23 -15 -23 -20 0 -5 -4 -7 -9 -3 -5 3 -16 -2
-24 -10 -9 -8 -28 -20 -42 -25 -23 -9 -25 -13 -15 -25 7 -8 22 -15 34 -15 18
0 17 -3 -10 -19 -17 -11 -36 -33 -42 -50 -8 -22 -8 -30 -1 -25 19 11 74 -27
91 -65 23 -47 38 -130 27 -137 -34 -20 25 -34 62 -14 17 10 19 22 19 123 -1
81 -3 107 -11 95 -12 -22 -26 -23 -45 -4 -23 24 -16 36 21 36 l35 0 0 85 c0
82 -1 85 -22 84 -13 0 -33 -5 -45 -11z"/>
<path d="M0 2137 c1 -252 1 -252 20 -228 13 14 20 38 20 63 0 49 23 48 30 -2
l5 -33 13 24 c7 14 14 31 15 39 2 8 7 21 11 29 5 8 5 12 0 9 -5 -3 -15 0 -22
8 -11 12 -9 14 7 14 17 0 20 5 15 30 -6 25 -3 30 20 36 14 3 26 11 26 16 0 6
9 8 20 5 20 -5 25 3 20 32 -1 8 1 34 5 58 5 36 12 46 33 54 15 6 35 17 44 26
10 9 25 12 36 8 11 -3 23 -1 26 4 6 10 -21 16 -99 24 -22 3 -65 9 -95 15 -30
6 -76 13 -102 16 l-48 6 0 -253z"/>
<path d="M2847 2263 c-12 -11 -8 -50 6 -61 17 -15 99 -42 108 -36 4 2 10 0 14
-6 3 -5 16 -10 28 -10 19 0 18 3 -10 20 -18 11 -33 23 -33 28 0 4 -12 23 -26
40 -26 30 -69 43 -87 25z"/>
<path d="M430 2135 c-11 -13 -5 -15 41 -15 40 0 50 3 41 12 -18 18 -68 20 -82
3z"/>
<path d="M1247 2126 c-5 -12 -14 -15 -32 -10 -14 3 -31 1 -39 -5 -11 -9 -15
-9 -18 0 -2 6 -13 9 -23 7 -20 -5 -20 -5 0 -14 41 -18 105 -67 105 -80 0 -7
-8 -15 -17 -17 -14 -4 -12 -5 5 -6 12 0 22 -5 22 -10 0 -5 -36 -10 -79 -13
-44 -3 -86 -10 -94 -17 -8 -6 -19 -11 -23 -10 -5 1 -20 1 -34 0 -19 -1 -21 -4
-11 -10 16 -10 80 -3 98 11 14 12 33 2 33 -16 0 -8 16 -17 35 -20 39 -8 75 0
75 15 0 5 7 9 16 9 10 0 14 -6 10 -15 -4 -11 2 -15 25 -15 24 0 30 4 25 15 -3
10 1 15 12 15 10 0 26 6 36 13 16 12 16 16 3 54 -9 27 -11 45 -5 51 6 6 5 18
-2 32 -10 18 -14 20 -22 9 -5 -8 -11 -10 -14 -4 -12 26 -22 35 -51 41 -22 4
-32 2 -36 -10z m112 -92 c13 -13 -10 -12 -35 2 l-29 16 30 -7 c16 -4 32 -9 34
-11z"/>
<path d="M3040 2110 c0 -5 5 -10 11 -10 5 0 7 5 4 10 -3 6 -8 10 -11 10 -2 0
-4 -4 -4 -10z"/>
<path d="M212 2075 c-15 -33 -15 -32 6 -37 10 -3 23 1 30 9 16 16 78 8 103
-13 8 -8 23 -14 32 -14 9 0 17 -5 17 -11 0 -5 -4 -8 -8 -5 -4 2 -13 -4 -20
-15 -11 -17 -9 -19 17 -19 21 0 32 6 36 20 7 23 -2 60 -16 60 -5 0 -9 11 -9
24 0 24 0 24 -45 11 -38 -12 -49 -12 -72 0 -40 21 -58 18 -71 -10z"/>
<path d="M2940 2045 c-14 -19 -44 -44 -67 -56 -48 -23 -53 -34 -21 -45 18 -5
27 0 48 27 14 18 38 46 53 61 15 16 24 28 20 28 -4 0 -1 5 7 10 13 9 13 10 0
10 -8 0 -26 -16 -40 -35z"/>
<path d="M3042 2055 c-1 -13 -14 -25 -33 -32 l-31 -12 21 -27 c12 -15 21 -36
21 -46 0 -11 10 -38 22 -59 19 -35 20 -41 7 -66 -8 -16 -20 -33 -28 -39 -29
-22 -5 -44 49 -44 27 0 50 4 50 9 0 5 17 12 38 16 38 6 39 7 51 71 15 72 7 94
-35 94 -13 0 -41 7 -63 16 -42 16 -57 42 -64 104 -2 19 -5 26 -5 15z"/>
<path d="M1023 1987 c-28 -12 -30 -27 -4 -27 10 0 22 7 25 16 8 22 5 24 -21
11z"/>
<path d="M713 1930 c1 -11 4 -20 8 -20 10 0 19 27 12 34 -12 12 -22 5 -20 -14z"/>
<path d="M2 1835 c0 -16 2 -22 5 -12 2 9 2 23 0 30 -3 6 -5 -1 -5 -18z"/>
<path d="M1150 1840 l-45 -7 47 -1 c26 -1 50 3 53 8 3 6 3 9 -2 8 -4 0 -28 -4
-53 -8z"/>
<path d="M1148 1560 c-9 -8 -37 -32 -61 -53 -35 -30 -43 -43 -39 -63 2 -13 9
-24 16 -24 19 0 65 48 87 91 24 48 23 72 -3 49z"/>
<path d="M2750 1312 c-70 -3 -93 -11 -65 -22 11 -4 26 -3 33 3 7 5 34 7 62 4
27 -3 52 -2 55 2 7 12 -21 16 -85 13z"/>
<path d="M1348 1263 c7 -3 16 -2 19 1 4 3 -2 6 -13 5 -11 0 -14 -3 -6 -6z"/>
<path d="M0 1240 c0 -6 8 -10 18 -9 9 2 27 -1 39 -5 31 -10 18 -34 -23 -42
-33 -6 -34 -7 -34 -55 l0 -49 169 0 c152 0 169 2 173 18 10 38 0 42 -113 42
-116 0 -149 9 -149 40 0 25 30 34 110 32 76 -2 203 8 196 15 -3 3 -49 7 -103
9 -54 2 -140 6 -190 9 -66 4 -93 3 -93 -5z"/>
<path d="M4 870 c0 -52 1 -74 3 -47 2 26 2 68 0 95 -2 26 -3 4 -3 -48z"/>
<path d="M277 819 c-21 -22 -37 -43 -37 -45 0 -2 18 -4 40 -4 27 0 40 4 40 14
0 7 3 28 6 45 9 42 -5 39 -49 -10z"/>
<path d="M610 748 c-12 -66 -7 -254 5 -267 14 -13 16 15 6 76 -7 42 -9 84 -3
108 7 34 12 41 37 45 40 7 47 51 14 86 -36 39 -46 30 -59 -48z"/>
<path d="M460 783 c-31 -28 -36 -42 -67 -178 -19 -89 -15 -557 6 -590 10 -16
11 31 7 250 -6 287 1 356 40 411 57 80 79 134 54 134 -5 0 -23 -12 -40 -27z"/>
<path d="M0 759 c0 -5 5 -7 10 -4 5 3 10 8 10 11 0 2 -4 4 -10 4 -5 0 -10 -5
-10 -11z"/>
<path d="M856 460 c7 -89 29 -208 39 -218 4 -4 5 13 1 38 -4 25 -11 82 -17
127 -12 111 -31 154 -23 53z"/>
<path d="M2320 289 c0 -5 5 -7 10 -4 6 3 10 8 10 11 0 2 -4 4 -10 4 -5 0 -10
-5 -10 -11z"/>
<path d="M2478 285 c-4 -4 -30 -10 -59 -14 -74 -9 -76 -29 -2 -23 60 4 78 12
71 32 -2 6 -6 8 -10 5z"/>
<path d="M1080 102 c6 -13 14 -21 18 -18 3 4 -2 14 -12 24 -18 16 -18 16 -6
-6z"/>
<path d="M1448 113 c7 -3 16 -2 19 1 4 3 -2 6 -13 5 -11 0 -14 -3 -6 -6z"/>
<path d="M1340 50 c17 -11 47 -14 36 -3 -3 4 -17 8 -29 10 -17 2 -19 1 -7 -7z"/>
<path d="M1408 23 c7 -3 16 -2 19 1 4 3 -2 6 -13 5 -11 0 -14 -3 -6 -6z"/>
</g>
</svg>
