<?xml version="1.0" encoding="UTF-8" standalone="no"?>
<svg width="100px" height="100px" viewBox="0 0 100 100" version="1.1" xmlns="http://www.w3.org/2000/svg" xmlns:xlink="http://www.w3.org/1999/xlink" xmlns:sketch="http://www.bohemiancoding.com/sketch/ns">
    <!-- Generator: Sketch 3.3.3 (12081) - http://www.bohemiancoding.com/sketch -->
    <title>1448642188_luggage + Fill 22 + Fill 23</title>
    <desc>Created with Sketch.</desc>
    <defs></defs>
    <g id="Page-1" stroke="none" stroke-width="1" fill="none" fill-rule="evenodd" sketch:type="MSPage">
        <g id="1448642188_luggage-+-Fill-22-+-Fill-23" sketch:type="MSLayerGroup">
            <g id="1448642188_luggage" sketch:type="MSShapeGroup">
                <path d="M50,0 C77.614,0 100,22.386 100,50 C100,77.614 77.614,100 50,100 C22.386,100 0,77.614 0,50 C0,22.386 22.386,0 50,0 L50,0 Z" id="Shape" fill="#EFC75E"></path>
                <path d="M28,40 C22.478,40 18,44.478 18,50 L18,88.413 C26.671,95.645 37.826,100 50,100 C62.174,100 73.328,95.645 82,88.413 L82,50 C82,44.478 77.522,40 72,40 L28,40 Z" id="Shape" fill="#E5007A"></path>
                <path d="M25,51 L25,93.294 C25.98,93.861 26.979,94.402 28,94.904 L28,51 C28,48.791 29.791,47 32,47 L29,47 C26.791,47 25,48.791 25,51 L25,51 Z" id="Shape" fill="#AE3374"></path>
                <path d="M71,46 L29,46 C26.243,46 24,48.243 24,51 L24,92.715 C24.656,93.115 25.324,93.499 26,93.869 L26,51 C26,49.346 27.346,48 29,48 L71,48 C72.654,48 74,49.346 74,51 L74,93.869 C74.676,93.499 75.344,93.115 76,92.715 L76,51 C76,48.243 73.757,46 71,46 L71,46 Z" id="Shape" fill="#F19088"></path>
                <path d="M18,50 L18,88.413 C18.968,89.221 19.972,89.984 21,90.718 L21,50 C21,44.478 25.478,40 31,40 L28,40 C22.478,40 18,44.478 18,50 L18,50 Z" id="Shape" fill="#AE3374"></path>
                <path d="M68.5,28 L63,28 L63,40 L60,40 L60,28 L40,28 L40,40 L37,40 L37,28 L31.5,28 C30.119,28 29,26.881 29,25.5 C29,24.119 30.119,23 31.5,23 L68.5,23 C69.881,23 71,24.119 71,25.5 C71,26.881 69.881,28 68.5,28 L68.5,28 Z" id="Shape" fill="#324D5B"></path>
                <path d="M56.2593138,52.2227311 C55.7027091,51.7087557 54.3093926,52.1640672 53.6423333,52.7800377 L51.1047647,55.1259253 C50.8571442,54.9139354 44.6918992,52.8840327 44.47099,53.0873563 L43.6667648,53.8293207 C43.4444117,54.0339776 43.4444117,54.3659617 43.6667648,54.5706185 L48.1730247,57.8344621 L46.3970876,59.4750502 C46.2620875,59.6003775 46.092435,59.7930349 45.9133974,60.0203574 L45.8419268,59.9550272 C45.7293064,59.8510322 44.1107491,59.6623745 43.9974068,59.7663695 L43.587353,60.1436848 C43.4747326,60.2483465 43.4747326,60.417005 43.587353,60.5210001 L43.7894922,60.7069911 L44.8731026,61.7062766 C44.6579687,62.2009195 44.5792788,62.6302323 44.7864715,62.8222231 C44.9943861,63.0142139 45.4600281,62.9408841 45.9964189,62.7408937 L47.0641469,63.7261798 L47.277115,63.9215038 C47.3897354,64.0261654 47.5738264,64.0261654 47.6864468,63.9215038 L48.0965006,63.5441885 C48.209121,63.4401935 48.004816,61.948265 47.8914737,61.84427 L47.8214469,61.7796064 C48.0676235,61.6149476 48.2740943,61.4589551 48.4083724,61.334961 L50.1843095,59.6937064 L53.7203013,63.8415076 C53.9426544,64.0461645 54.3028953,64.0461645 54.5245265,63.8415076 L55.3287516,63.1002098 C55.5511047,62.8948863 53.3456219,57.2031591 53.1182153,56.982503 L55.6536182,54.6392819 C56.3221213,54.0239781 56.8151965,52.7360398 56.2593138,52.2227311 L56.2593138,52.2227311 Z" id="Shape" fill="#F2F1EF"></path>
                <g id="Group" transform="translate(37.000000, 28.000000)" fill="#233640">
                    <path d="M0,0 L3,0 L3,3 L0,3 L0,0 Z M23,0 L26,0 L26,3 L23,3 L23,0 Z" id="Shape"></path>
                </g>
                <path d="M70.949,26 L29.05,26 C29.282,27.141 30.29,28 31.5,28 L68.5,28 C69.71,28 70.718,27.141 70.949,26 L70.949,26 Z" id="Shape" fill="#2D4552"></path>
            </g>
            <path d="M35.372093,83.9941001 L38.7728081,82.0019671 C39.4280833,83.1275785 40.023458,84.0798857 41.4538095,84.0798857 C42.8269832,84.0798857 43.6910026,83.5617058 43.6910026,81.5418441 L43.6910026,67.804878 L47.8649788,67.804878 L47.8649788,81.6025006 C47.8649788,85.7852001 45.3300983,87.688948 41.6326034,87.688948 C38.2945116,87.688948 36.3559134,86.0130953 35.372093,83.9941001" id="Fill-22" fill="#FFFFFF" sketch:type="MSShapeGroup"></path>
            <path d="M50.3953488,83.7904675 L53.7951563,81.8875862 C54.689126,83.2991498 55.8517403,84.3398422 57.909232,84.3398422 C59.6390859,84.3398422 60.7417998,83.5019158 60.7417998,82.3477091 C60.7417998,80.9656073 59.6082281,80.473423 57.7023029,79.6649584 L56.6576744,79.2299646 C53.6472202,77.9917053 51.6496291,76.4319666 51.6496291,73.1426508 C51.6496291,70.1132914 54.0338508,67.804878 57.7603883,67.804878 C60.4132546,67.804878 62.3200874,68.6973952 63.6941687,71.0370034 L60.4441124,73.0559986 C59.7289367,71.8160063 58.9520453,71.3246886 57.7603883,71.3246886 C56.5396886,71.3246886 55.7627972,72.0733632 55.7627972,73.0559986 C55.7627972,74.2656627 56.5396886,74.7569804 58.3258127,75.5082546 L59.3695337,75.9441149 C62.9190924,77.414602 64.9166835,78.9154173 64.9166835,82.2913852 C64.9166835,85.9255766 61.9643147,87.9177096 57.9981751,87.9177096 C54.1246091,87.9177096 51.6160485,86.1292092 50.3953488,83.7904675 L65,112" id="Fill-23" fill="#FFFFFF" sketch:type="MSShapeGroup"></path>
        </g>
    </g>
</svg>